<svg id="Layer_1" enable-background="new 0 0 512 512" height="512" viewBox="0 0 512 512" width="512" xmlns="http://www.w3.org/2000/svg"><path d="m478.725 218.127c-2.322-5.605-7.792-9.26-13.858-9.26h-159.249l29.474-191.585c.986-6.411-2.26-12.729-8.045-15.661-5.787-2.933-12.801-1.812-17.387 2.774l-273.133 273.132c-4.29 4.29-5.573 10.742-3.252 16.347 2.322 5.605 7.792 9.26 13.858 9.26h159.248l-29.474 191.585c-.986 6.411 2.26 12.729 8.045 15.661 5.787 2.933 12.801 1.812 17.387-2.774l273.133-273.132c4.291-4.291 5.574-10.742 3.253-16.347z"/></svg>